<svg version="1.1" id="Layer_1" xmlns="http://www.w3.org/2000/svg" xmlns:xlink="http://www.w3.org/1999/xlink" x="0px" y="0px"
	 width="100%" viewBox="0 0 480 272" enable-background="new 0 0 480 272" xml:space="preserve">
<path fill="#000000" opacity="1.000000" stroke="none" 
	d="
M263.813843,247.937592 
	C226.634872,264.960876 185.662460,249.772339 163.916443,217.493774 
	C134.675125,174.089630 146.096619,115.034332 189.578064,86.053993 
	C209.082336,73.054413 230.723953,70.676971 253.320847,76.349068 
	C255.070557,76.788254 256.849182,77.348618 258.615448,79.160515 
	C254.988876,85.822952 252.173035,92.995552 252.145126,100.901810 
	C249.819611,100.913132 249.402481,99.236694 248.594818,98.086563 
	C245.978912,94.361404 242.837387,91.158020 239.082153,88.610916 
	C233.969833,85.143326 228.373627,85.075401 223.863068,89.190849 
	C211.196564,100.747841 204.149887,115.167671 204.431381,132.428146 
	C204.590012,142.155731 211.085983,147.962723 219.517838,151.803452 
	C228.641342,155.959229 238.487320,158.078552 247.734650,161.861160 
	C256.312164,165.369766 264.331879,169.626968 269.109222,178.219421 
	C272.305450,183.968079 273.479156,190.102798 272.663818,196.486328 
	C272.227661,199.900696 272.727600,202.013199 275.919189,203.863007 
	C280.062439,206.264328 283.798004,209.369110 288.198608,212.521805 
	C293.855743,206.470123 296.881775,198.928146 299.557220,191.312408 
	C301.258636,186.469391 302.092529,181.323227 303.345764,176.320587 
	C304.296326,172.526245 302.722229,171.103424 298.971222,171.232224 
	C294.643066,171.380859 290.305237,171.218719 285.972839,171.279663 
	C281.289948,171.345535 275.129639,169.410233 277.111755,177.695251 
	C275.627655,178.323303 275.018097,177.939301 274.740662,177.332901 
	C269.470978,165.814270 259.465027,160.132248 248.314163,155.892380 
	C244.113846,154.295303 239.873962,152.791168 235.603394,151.393524 
	C232.256577,150.298172 228.732056,149.075027 230.052322,144.696671 
	C231.301285,140.554718 234.899155,141.545776 238.044815,142.303329 
	C245.850266,144.183121 253.311966,146.994873 260.499451,150.561844 
	C261.655518,151.135559 262.740173,152.098785 264.482971,151.522629 
	C265.197205,147.226761 265.298859,141.284134 262.026337,139.718384 
	C257.134583,137.377960 253.614288,133.388550 248.796890,131.142380 
	C244.341095,129.064819 239.900803,127.520874 235.011261,127.139778 
	C225.147888,126.371040 217.090363,128.747681 213.827271,139.490158 
	C206.887573,132.501266 208.524155,120.225739 216.751572,115.643394 
	C222.935120,112.199409 229.674332,111.493469 236.611511,112.204018 
	C241.786438,112.734070 246.716293,114.299141 251.596497,115.982796 
	C255.636841,117.376709 258.664764,119.763161 260.869629,123.747757 
	C264.973877,131.164902 269.132507,138.600815 274.346069,145.344940 
	C276.510071,148.144257 276.809326,151.534332 277.133484,154.795258 
	C277.420532,157.682358 278.450348,159.019821 281.413269,158.973206 
	C287.577789,158.876251 293.744812,158.869751 299.910095,158.916687 
	C303.131134,158.941208 303.988007,157.292877 303.435059,154.438370 
	C302.960968,151.990967 302.896545,149.371979 301.948486,147.125275 
	C298.605560,139.203186 303.172546,133.959030 307.564178,128.266495 
	C324.090210,160.339844 317.255615,223.048111 263.813843,247.937592 
M227.767258,171.873123 
	C224.315948,170.647461 220.859299,169.436569 217.414215,168.193634 
	C197.638962,161.059097 191.440628,152.524643 190.818283,131.577011 
	C190.778778,130.247192 191.033356,128.732040 189.889404,127.822815 
	C185.008408,123.943306 180.046814,120.165199 174.925842,116.204063 
	C166.449661,128.124817 162.047470,140.866943 160.320618,154.632309 
	C159.949554,157.590103 161.170822,158.963226 164.219070,158.913727 
	C170.382751,158.813644 176.548630,158.809021 182.713348,158.832825 
	C185.393890,158.843185 186.714554,157.719040 186.689423,154.947372 
	C186.680115,153.920868 186.215866,152.571823 188.392944,151.593918 
	C188.574005,151.960480 188.857544,152.558792 189.161606,153.146454 
	C193.935913,162.373215 201.741043,168.071960 211.149841,171.792450 
	C217.180801,174.177216 223.330948,176.259079 229.386200,178.584671 
	C232.374374,179.732315 234.999313,181.571045 233.746887,185.264282 
	C232.486816,188.979996 229.149277,188.768311 226.166550,187.945328 
	C222.323074,186.884827 218.649261,185.211411 214.808044,184.140213 
	C209.305283,182.605667 204.604675,178.900284 198.569839,177.650497 
	C198.170822,182.871765 199.393936,187.148849 200.446274,191.899261 
	C203.003067,190.657700 204.618927,191.959244 206.288010,193.465179 
	C210.287262,197.073578 214.872986,199.777420 219.911118,201.669403 
	C226.315308,204.074402 232.878967,204.526535 239.539780,202.923935 
	C245.587845,201.468750 248.624680,196.891678 250.570297,191.271011 
	C253.280884,192.944138 253.780060,195.293182 254.162827,197.521835 
	C256.112854,208.875885 249.224777,217.391739 237.445663,218.282410 
	C228.508255,218.958221 219.856003,217.712845 211.498398,214.397339 
	C210.054581,213.824585 208.666245,212.573029 206.866745,213.332809 
	C208.676056,220.946060 214.404861,231.099609 220.214172,237.040985 
	C227.469543,244.461334 235.515274,244.649109 243.035690,237.506149 
	C251.287827,229.668198 256.042328,219.727844 258.573883,208.940140 
	C262.331543,192.927597 257.597412,184.173386 242.495239,177.470306 
	C237.939606,175.448303 233.170547,173.907120 227.767258,171.873123 
M182.061966,207.493958 
	C183.530930,206.405655 184.865540,205.014511 186.496338,204.291000 
	C190.078247,202.701889 190.563751,200.328537 189.620361,196.761871 
	C187.791306,189.847000 186.675583,182.773407 186.705704,175.589676 
	C186.717453,172.786942 185.962753,171.166306 182.787186,171.260056 
	C178.468124,171.387573 174.141251,171.221527 169.819321,171.286697 
	C160.605774,171.425598 158.823975,168.942505 161.369202,181.213730 
	C163.714401,192.520493 167.926224,203.022385 175.012527,212.368225 
	C177.904282,211.357880 179.475952,209.306519 182.061966,207.493958 
M194.540741,97.046463 
	C190.656586,99.809692 186.514099,102.279991 183.602219,106.587440 
	C186.177017,110.577988 189.664841,113.342720 194.303635,115.898949 
	C197.489502,107.499153 200.900742,99.713997 205.744415,91.450974 
	C201.076950,92.639244 198.241165,94.925255 194.540741,97.046463 
M197.355301,222.046875 
	C196.244003,219.522400 195.132690,216.997925 193.960831,214.335922 
	C190.043930,215.320816 187.804108,218.052505 185.293442,220.358505 
	C184.306824,221.264633 184.185684,222.498062 185.125870,223.462952 
	C190.159515,228.628860 195.943283,232.660629 203.376404,236.104141 
	C202.199707,230.380096 198.914185,226.998764 197.355301,222.046875 
M268.553650,216.395813 
	C266.733215,222.830917 263.086151,228.531265 260.438690,235.034851 
	C266.399109,233.865402 276.957428,226.123413 279.258118,221.557297 
	C277.709412,219.154739 275.350342,217.573212 273.103424,215.904129 
	C271.811249,214.944275 270.346680,213.681900 268.553650,216.395813 
z"/>
<path fill="#000000" opacity="1.000000" stroke="none" 
	d="
M257.858368,98.173813 
	C260.542023,81.808594 269.555725,72.140884 282.951935,70.840790 
	C300.997498,69.089455 315.750153,86.179337 311.893311,104.357971 
	C309.411987,116.053383 302.468170,125.546860 296.388306,135.428680 
	C293.107910,140.760406 289.216522,145.716202 285.721832,150.670044 
	C284.877441,150.488113 284.407440,150.531113 284.265137,150.335587 
	C274.864685,137.420242 265.648773,124.382080 259.817841,109.349754 
	C258.493622,105.935944 257.741241,102.331306 257.858368,98.173813 
M282.235809,87.355965 
	C276.340881,90.013786 272.753540,95.356453 273.493774,100.375595 
	C274.271118,105.646019 278.175781,110.032135 282.809479,110.800049 
	C287.690948,111.609016 291.623688,110.022034 294.549744,106.027420 
	C297.490662,102.012573 297.716339,97.651848 295.471588,93.378777 
	C292.884003,88.452995 288.579376,86.427330 282.235809,87.355965 
z"/>
</svg>